# xmcd
# 
# Track frame offsets:
#     150
#     14353
#     29428
#     44828
#     62600
#     78218
#     93090
#     107213
#     121388
#     135970
#     151195
#     167655
# 
# Disc length: 2452
# 
# Revision: 1
# Processed by: cddbd v1.5.2PL0 Copyright (c) Steve Scherf et al.
# Submitted via: BonkEnc v1.0.8
# 
DISCID=8e09920c
DTITLE=RENDEZVOUS - Für immmer und ewig
DYEAR=0
DGENRE=
TTITLE0=Gefangen in Gefühlen
TTITLE1=C'est La Vie
TTITLE2=Und trotzdem lieb ich Dich
TTITLE3=Copacabana bei Nacht
TTITLE4=Spürst Du Die Sehnsucht
TTITLE5=Jeder neue Tag mit Dir
TTITLE6=In Deinem Arm bin ich dem Himmel nah
TTITLE7=Für immer und ewig
TTITLE8=Durch Regen und durch Wind
TTITLE9=Buona Sera Signorina (Amor)
TTITLE10=Kaliando Mosi
TTITLE11=Fliege ,mein Drachen
EXTD=
EXTT0=
EXTT1=
EXTT2=
EXTT3=
EXTT4=
EXTT5=
EXTT6=
EXTT7=
EXTT8=
EXTT9=
EXTT10=
EXTT11=
PLAYORDER=
